<svg width="112" height="42" viewBox="0 0 112 42" fill="none" xmlns="http://www.w3.org/2000/svg">
<path d="M96.8577 8.18586V0.838921H76.6303L73.3038 25.3835L70.012 0.839041H62.7176L63.5348 7.38835C62.6923 5.71056 59.7058 0.839041 53.1336 0.839041C53.0903 0.836178 45.8292 0.839041 45.8292 0.839041L45.8013 36.6147L40.4846 0.839041L30.9314 0.833435L25.4312 37.9019L25.434 0.838802H16.291L12.9949 21.6603L9.78437 0.839041H0.638428V41.1386H7.84067V21.7143L11.1168 41.1381H14.9458L18.1759 21.7143V41.1381H32.0606L32.9032 34.9371H38.4933L39.333 41.1381L52.9645 41.1466H52.9756V41.1381H52.9841H52.9925V28.0568L54.6637 27.8108L58.1233 41.1466H58.1318H65.1658H65.174L65.1712 41.1381H65.1837H65.1922L60.6522 25.5079C62.9529 23.7879 65.5507 19.4199 64.8593 15.2413V15.2386C64.8676 15.2951 69.1446 41.1639 69.1446 41.1639L77.5303 41.1381L83.2603 4.60989V41.1383H96.8581V33.8903H90.4035V24.6479H96.8581V17.2897H90.4035V8.18586H96.8577ZM33.7516 28.5465L35.729 11.3177L37.7822 28.5465H33.7516ZM54.687 20.5912C54.1328 20.8629 53.5548 20.9987 52.9922 20.9987V8.03595C53.002 8.03595 53.0133 8.03332 53.0272 8.03332C53.5913 8.03046 57.7967 8.20578 57.7967 14.4466C57.7967 17.7111 56.3664 19.7681 54.687 20.5912ZM111.369 33.8847V41.1325H98.1047V0.833435H105.247V33.8847H111.369Z" fill="white"/>
</svg>
