<svg width="187" height="75" viewBox="0 0 187 75" fill="none" xmlns="http://www.w3.org/2000/svg">
<rect width="186" height="75" transform="translate(0.5)" fill="#CCCCCC"/>
<path d="M157.901 17.4821V5.99663H126.018L120.769 44.3524L115.583 5.99663H104.086L105.371 16.2386C104.045 13.6136 99.3401 5.99663 88.9799 5.99663C88.9111 5.99213 77.4684 5.99663 77.4684 5.99663L77.4208 61.9031L69.0422 5.99663L53.9822 5.99213L45.3131 63.9173L45.3179 5.99663H30.9022L25.7072 38.5346L20.6465 5.99663H6.22852V68.9711H17.5831V38.6171L22.7487 68.9711H28.784L33.8767 38.6171V68.9711H55.7644L57.088 59.2849H65.8999L67.2235 68.9711L88.7143 68.985H88.7299V68.9711H88.7567V48.5321L91.3882 48.1481L96.8421 68.985H107.959L107.954 68.9711H107.986L100.829 44.5549C104.453 41.8628 108.549 35.0378 107.459 28.5056V28.5034C107.472 28.5881 114.216 69.0131 114.216 69.0131L127.435 68.9719L136.466 11.8958V68.9719H157.9V57.6473H147.728V43.2071H157.9V31.7096H147.728V17.4821H157.901ZM58.4253 49.3013L61.5453 22.3755L64.778 49.3013H58.4253ZM91.4247 36.8681C90.5527 37.2893 89.645 37.5 88.7567 37.5023V17.2485C88.7705 17.2485 88.7913 17.2463 88.8136 17.2463C89.699 17.2395 96.3291 17.514 96.3291 27.2621C96.3291 32.3614 94.0748 35.5774 91.4247 36.8681ZM180.774 57.6368V68.9573H159.862V5.98763H171.123V57.6368H180.774Z" fill="white"/>
</svg>
